<?xml version="1.0" encoding="utf-8"?>
<!-- Generator: Adobe Illustrator 27.7.0, SVG Export Plug-In . SVG Version: 6.00 Build 0)  -->
<svg version="1.1" xmlns="http://www.w3.org/2000/svg" xmlns:xlink="http://www.w3.org/1999/xlink" x="0px" y="0px"
	 width="850.394px" height="864.567px" viewBox="0 0 850.394 864.567" style="enable-background:new 0 0 850.394 864.567;"
	 xml:space="preserve">
<style type="text/css">
	.st0{fill-rule:evenodd;clip-rule:evenodd;}
</style>
<g id="Layer_1">
	<g transform="translate(.220942 .0259173)">
		<path d="M579.997,784.201c0,0.01,0,0.02,0,0.02v32.45c0.08,36-311.13,34.3-310.04,0v-32.36c0.59-4.33,4.09-15.02,24.42-15.3
			c25.5-0.36,248.44,0,265.08,0C574.347,769.011,579.237,778.141,579.997,784.201z"/>
		<path d="M559.706,761.781v22.79c0.07,24.66-268.97,21.62-269.46,0v-23.04c0.01-0.03,0.02-0.06,0.04-0.1
			c2.09-6.18,43.75-20.91,130.44-20.91c86.8,0,136.51,11.64,138.92,21.03C559.686,761.631,559.696,761.711,559.706,761.781z"/>
		<path d="M430.645,706.651h-11.339c-7.882,0-26.929,18.7-26.929,21.118s19.047,21.118,26.929,21.118h11.339
			c7.882,0,26.929-18.7,26.929-21.118S438.528,706.651,430.645,706.651z"/>
		<polygon points="408.253,719.683 408.253,193.845 441.699,193.845 441.52,719.683 		"/>
		<path class="st0" d="M451.307,139.146c0-7.267-5.9-13.167-13.167-13.167h-26.333c-7.263,0-13.162,5.9-13.162,13.167v52.238
			c0,7.267,5.9,13.163,13.162,13.163h26.333c7.267,0,13.167-5.896,13.167-13.163V139.146z"/>
		<path d="M424.003,90.724c-1.1,0-2.208,0.05-3.25,0.129c-1.237,0.096-2.371,0.321-3.508,0.521
			c-6.779,1.175-11.558,3.979-11.558,7.396v63.196c0,3.417,4.779,6.221,11.558,7.396c1.138,0.196,2.271,0.425,3.508,0.521
			c1.042,0.079,2.15,0.129,3.25,0.129h1.425c1.417,0,2.833,0,4.158-0.129c8.375-0.746,14.679-4.004,14.679-7.917V98.77
			c0-3.917-6.304-7.171-14.679-7.917c-0.129-0.013-0.263,0.012-0.388,0c-1.038-0.092-2.158-0.117-3.25-0.129H424.003z"/>
		<rect x="411.172" y="78.03" width="27.609" height="18.322"/>
		<path d="M415.362,58.549v10.638c0,0-0.662,0.342-0.75,0.375c-0.025,0.008-0.221-0.013-0.25,0
			c-4.125,0.729-9.896,2.167-11.762,4.254c-0.75,0.833-0.554,1.4,0,2.125c1.1,1.454,10.779,6.008,21.646,6.008
			c0.204,0,0.421,0.004,0.625,0c0.246,0.008,0.508,0,0.754,0c10.863,0,20.517-4.55,21.646-6.008c0.896-1.154,0.621-1.363,0-2.125
			c-1.171-1.442-7.667-3.533-11.763-4.254c-0.017-0.008-0.112,0.004-0.125,0c-0.112-0.046-0.875-0.375-0.875-0.375V58.549H415.362
			L415.362,58.549z"/>
		<circle cx="424.976" cy="41.785" r="23.102"/>
	</g>
</g>
<g id="Layer_2">
	<path d="M424.244,122.782c-1.073,0-2.157,0.049-3.176,0.127c-1.211,0.093-2.318,0.315-3.43,0.508
		c-6.633,1.15-11.307,3.895-11.307,7.241v17.659c-20.066-11.636-44.872-17.913-62.632-17.913c-23.716,0-36.065,2.798-64.537,18.548
		c-23.676,13.096-30.222,18.711-46.751,15.118s-24.407-12.116-33.031-14.991c-8.624-2.875-21.548,6.389-22.359,9.147
		c-0.898,3.054-3.728-0.766-4.446-2.922c-0.719-2.156-16.98,7.082-16.261,12.831c0.719,5.749,14.701,21.506,16.77,14.737
		c1.976-6.468,4.726-7.089,7.241-4.574c2.541,2.541,11.902,7.725,13.339,17.786c1.437,10.061-3.648,12.911-7.241,10.036
		c-3.593-2.875-4.998-4.24-5.717-7.114c-0.719-2.875-15.749,4.323-13.593,6.479c2.156,2.156,6.403,15.713,11.434,17.151
		c5.031,1.437,5.082,7.924,5.082,10.799s8.639,2.243,8.639,1.525s0.635-10.163,0.635-10.163s16.599-1.391,15.88-22.232
		c-0.719-20.841-12.272-27.274-7.241-28.711s30.146,11.477,51.706,12.196s50.757-20.835,89.565-20.835
		c28.795,0,52.929,13.386,63.521,20.327v6.987c0,3.346,4.674,6.092,11.307,7.241c1.112,0.193,2.219,0.415,3.43,0.508
		c1.019,0.078,2.103,0.127,3.176,0.127c0.17,0.002,0.337,0,0.508,0h0.889c1.384,0,2.77,0.001,4.065-0.127
		c8.192-0.729,14.356-3.918,14.356-7.75v-6.987c10.592-6.941,34.726-20.327,63.521-20.327c38.808,0,68.005,21.554,89.565,20.835
		c21.56-0.719,46.675-13.633,51.706-12.196c5.031,1.437-6.523,7.87-7.241,28.711c-0.719,20.841,15.88,22.232,15.88,22.232
		s0.635,9.445,0.635,10.163s8.639,1.35,8.639-1.525s0.051-9.361,5.082-10.799c5.031-1.437,9.278-14.995,11.434-17.151
		c2.156-2.156-12.875-9.354-13.594-6.479c-0.719,2.875-2.124,4.24-5.717,7.114c-3.593,2.875-8.679,0.025-7.241-10.036
		c1.437-10.061,10.798-15.245,13.339-17.786c2.515-2.515,5.138-1.894,7.114,4.574c2.068,6.769,16.178-8.988,16.897-14.737
		s-15.543-14.987-16.261-12.831c-0.719,2.156-3.548,5.976-4.446,2.922c-0.811-2.758-13.736-12.022-22.359-9.147
		c-8.624,2.875-16.502,11.398-33.031,14.991c-16.529,3.593-23.076-2.022-46.751-15.118c-28.473-15.75-40.949-18.548-64.664-18.548
		c-17.759,0-42.439,6.276-62.505,17.913v-17.659c0-3.832-6.164-7.02-14.356-7.75c-0.125-0.011-0.255,0.01-0.381,0
		c-1.012-0.09-2.11-0.114-3.176-0.127C426.15,122.782,424.244,122.782,424.244,122.782z"/>
	<g transform="translate(34.1704 5.60824) scale(.78682)">
		<path d="M796.858,270.753c-0.762,6.758-0.9,13.517,0,20.271c0,0-12.763-0.175-12.763,2.754c0,2.929,1.596,56.008-3.004,61.317
			c-4.6,5.308-7.512,4.208-9.633,1.375c-2.125-2.829-8.429-2.417-9.137-1c-0.708,1.417-2.258,10.096,2.254,13.017
			c6.296,4.071,21.983,3.954,23.4-11.263c1.417-15.221,1.375-28.283,7.258-28.283c2.125,0,2,7.254,2,15.392
			c0,8.142-0.708,10.246-2.125,12.013c-1.417,1.771-1.063,18.771,0,18.771h10.637c1.058,0,1.413-17,0-18.771
			c-1.417-1.767-2.129-3.871-2.129-12.013c0-8.138-0.996-15.392,1.125-15.392c6.383,0,5.592,11.688,7.008,26.904
			c1.417,15.221,16.071,15.617,23.15,13.142c7.079-2.479,3.646-12.696,3.004-14.142c-0.958-2.167-5.133-0.329-7.758,1.25
			c-3.033,1.829-6.038,3.933-10.637-1.375c-4.6-5.308-5.004-58.008-5.004-60.942c0-2.929-11.638-2.754-11.638-2.754
			c-0.296-6.758-1.246-13.513,0-20.271C799.824,272.416,798.258,271.72,796.858,270.753L796.858,270.753z M800.112,295.153
			c3.396,0,6.133,0.6,6.133,1.379v9.508c0,0.779-2.737,1.375-6.133,1.375c-3.396,0-6.133-0.596-6.133-1.375v-9.508
			C793.979,295.753,796.716,295.153,800.112,295.153z M626.024,732.624c108.642,60.9,246.238,57.496,353.938,0
			c8.904-5.371-117.663-19.304-177.554-19.304C695.387,713.32,624.078,723.954,626.024,732.624z"/>
		<path d="M801.528,372.623c-5.539,3.374-1.609-3.06-1.997,2.492l0.876,398.85 M777.191,358.174
			c0.892,0.271,1.063,2.467,0.463,4.821c-0.604,2.354-1.892,4.867-3.125,8.858c-42.133,126.713-88.217,252.109-132.558,378.063
			 M824.066,358.174c-0.892,0.271-1.062,2.467-0.462,4.821c0.604,2.354,1.892,4.867,3.125,8.858
			c42.133,126.713,88.217,252.109,132.558,378.063"/>
		<path d="M626.024,733.624c118.554,52.404,246.238,41.921,353.938,0c-2.421,12.237-63.258,87.321-181.8,87.317
			C681.233,820.937,626.024,742.116,626.024,733.624z"/>
	</g>
	<g transform="translate(34.1704 5.60824) scale(.78682)">
		<path d="M197.084,270.753c0.762,6.758,0.9,13.517,0,20.271c0,0,12.763-0.175,12.763,2.754c0,2.929-1.596,56.008,3.004,61.317
			c4.6,5.308,7.512,4.208,9.633,1.375c2.125-2.829,8.429-2.417,9.137-1c0.708,1.417,2.258,10.096-2.254,13.017
			c-6.296,4.071-21.983,3.954-23.4-11.263c-1.417-15.221-1.375-28.283-7.258-28.283c-2.125,0-2,7.254-2,15.392
			c0,8.142,0.708,10.246,2.125,12.013c1.417,1.771,1.063,18.771,0,18.771h-10.637c-1.058,0-1.413-17,0-18.771
			c1.417-1.767,2.129-3.871,2.129-12.013c0-8.138,0.996-15.392-1.125-15.392c-6.383,0-5.592,11.688-7.008,26.904
			c-1.417,15.221-16.071,15.617-23.15,13.142c-7.079-2.479-3.646-12.696-3.004-14.142c0.958-2.167,5.133-0.329,7.758,1.25
			c3.033,1.829,6.038,3.933,10.637-1.375c4.6-5.308,5.004-58.008,5.004-60.942c0-2.929,11.637-2.754,11.637-2.754
			c0.296-6.758,1.246-13.513,0-20.271C194.117,272.416,195.684,271.72,197.084,270.753L197.084,270.753z M193.829,295.153
			c-3.396,0-6.133,0.6-6.133,1.379v9.508c0,0.779,2.737,1.375,6.133,1.375s6.133-0.596,6.133-1.375v-9.508
			C199.963,295.753,197.225,295.153,193.829,295.153z M367.917,732.624c-108.642,60.9-246.238,57.496-353.938,0
			c-8.904-5.371,117.663-19.304,177.554-19.304C298.555,713.32,369.863,723.954,367.917,732.624z"/>
		<path d="M192.414,372.623c5.54,3.374,1.609-3.06,1.997,2.492l-0.876,398.85 M216.75,358.174c-0.892,0.271-1.063,2.467-0.462,4.821
			c0.604,2.354,1.892,4.867,3.125,8.858c42.133,126.713,88.217,252.109,132.558,378.063 M169.875,358.174
			c0.892,0.271,1.063,2.467,0.462,4.821c-0.604,2.354-1.892,4.867-3.125,8.858C125.079,498.566,78.996,623.962,34.654,749.916"/>
		<path d="M367.917,733.624c-118.554,52.404-246.238,41.921-353.938,0c2.421,12.237,63.258,87.321,181.8,87.317
			C312.709,820.937,367.917,742.116,367.917,733.624z"/>
	</g>
</g>
</svg>
